<?xml version="1.0" standalone="no"?><!DOCTYPE svg PUBLIC "-//W3C//DTD SVG 1.1//EN" "http://www.w3.org/Graphics/SVG/1.1/DTD/svg11.dtd"><svg t="1755588236954" class="icon" viewBox="0 0 1024 1024" version="1.1" xmlns="http://www.w3.org/2000/svg" p-id="5788" xmlns:xlink="http://www.w3.org/1999/xlink" width="200" height="200"><path d="M491.163659 44.574915s-128.255308 215.144706-384.778033 215.144707c0 0-16.561702 484.07559 384.778033 711.63249 0 0 426.555663-206.86991 426.555663-732.319481-0.004036 0-286.594546 37.232547-426.555663-194.457716z" fill="#8BE0A3" p-id="5789"></path><path d="M94.247913 298.453742c-0.169532 4.298858-3.616692 106.756983 40.934005 236.457353 41.131793 119.774651 132.75599 286.695458 335.621705 401.723201a40.336605 40.336605 0 0 0 32.901398 3.100021c4.375551-1.485427 108.339286-37.587758 212.294947-136.98219 95.749486-91.555577 209.864983-256.397594 209.864983-521.865172l-28.763999-14.192285c0 384.923346-404.488194 553.910835-419.49585 559.101756a40.142854 40.142854 0 0 1 33.006347 3.067729c-346.047949-196.213587-11.520131-709.444715-11.374818-713.113881L94.247913 298.453742z" fill="#6E6E96" opacity=".15" p-id="5790"></path><path d="M499.236631 109.158692c98.538697 266.609904 398.199349 152.433859 426.555663 149.44686 1.64285-22.333877 0 0 0-23.61748-0.004036 0-286.594546 37.232547-426.555663-194.457716 0 0-128.255308 215.144706-384.778033 215.144707 0 0-0.875917-15.750369 2.732701 26.89107 286.098058 61.919696 382.045332-173.407441 382.045332-173.407441z" fill="#B0EDC1" p-id="5791"></path><path d="M473.826951 34.241511l0.01211-0.020182c-1.231128 2.050535-125.930292 205.315863-367.453435 205.315863a20.186467 20.186467 0 0 0-20.17032 19.492191c-0.173569 5.077899-3.72164 126.144226 42.774642 277.104767 43.069306 139.860205 139.145747 331.944467 352.223773 452.768604a20.158211 20.158211 0 0 0 18.757551 0.5974c4.496645-2.183739 111.394906-54.787225 219.407235-173.706141 99.685059-109.743983 218.523245-298.897755 218.523246-576.773492a20.18243 20.18243 0 0 0-22.765782-20.016934c-2.736738 0.347138-275.405407 32.469494-406.700188-184.875097a20.190503 20.190503 0 0 0-17.332671-9.748114 20.222795 20.222795 0 0 0-17.276161 9.861135z m423.709941 204.79112c0 506.942283-411.027301 712.145124-415.172773 714.159331a20.18243 20.18243 0 0 1 18.757551 0.601436C114.882429 734.797884 126.394488 265.128513 126.555947 260.409861a20.18243 20.18243 0 0 1-20.170321 19.492191c264.938798 0 396.641265-215.802654 402.114741-224.989696a20.18243 20.18243 0 0 1-34.608832 0.096876c60.091168 99.467089 156.325032 166.307262 278.295531 193.299244 91.450628 20.238941 165.023659 11.136665 168.103498 10.741089a20.18243 20.18243 0 0 1-22.753672-20.016934z" fill="#6E6E96" p-id="5792"></path><path d="M658.371057 369.851107l-215.952004 215.947967h42.815008l-119.601082-119.593008-42.815007 42.810971 119.601081 119.601081 21.405486 21.401449 21.409522-21.401449 215.952004-215.95604z" fill="#6E6E96" p-id="5793"></path></svg>